<svg width="82" height="82" viewBox="0 0 82 82" fill="none" xmlns="http://www.w3.org/2000/svg">
<path fill-rule="evenodd" clip-rule="evenodd" d="M68.3334 13.6667V58.0833C68.3323 60.2589 67.6389 62.3777 66.3537 64.1331C65.0685 65.8885 63.258 67.1894 61.1844 67.8476C59.1107 68.5058 56.8814 68.4871 54.8191 67.7943C52.7568 67.1014 50.9684 65.7703 49.7128 63.9936C48.4572 62.2169 47.7994 60.0868 47.8348 57.9114C47.8701 55.7361 48.5967 53.6285 49.9094 51.8935C51.222 50.1585 53.0527 48.8862 55.1364 48.2607C57.2202 47.6352 59.4489 47.689 61.5001 48.4142V20.5H34.1667V64.9167C34.1656 67.0923 33.4723 69.2111 32.187 70.9665C30.9018 72.7219 29.0913 74.0228 27.0177 74.681C24.944 75.3392 22.7147 75.3205 20.6524 74.6276C18.5901 73.9347 16.8017 72.6036 15.5461 70.8269C14.2905 69.0502 13.6328 66.9201 13.6681 64.7448C13.7034 62.5695 14.43 60.4618 15.7427 58.7268C17.0554 56.9919 18.886 55.7196 20.9698 55.0941C23.0535 54.4686 25.2822 54.5223 27.3334 55.2475V13.6667C27.3334 11.8543 28.0534 10.1163 29.3349 8.83476C30.6164 7.55327 32.3544 6.83333 34.1667 6.83333H61.5001C63.3124 6.83333 65.0505 7.55327 66.332 8.83476C67.6135 10.1163 68.3334 11.8543 68.3334 13.6667Z" fill="#573440"/>
<rect x="18.3311" y="5.69006" width="90" height="7" rx="3.5" transform="rotate(49 18.3311 5.69006)" fill="#573440"/>
</svg>
