<svg width="76" height="76" viewBox="0 0 76 76" fill="none" xmlns="http://www.w3.org/2000/svg">
<path d="M61.8448 46.6168H61.8702C63.9144 46.6147 65.9057 46.4332 67.8443 46.0722L67.6448 46.1038C64.0147 59.1567 52.2311 68.5806 38.246 68.5806H38.0623H38.0718C21.1471 68.5616 7.43126 54.8501 7.41543 37.9307C7.45512 31.274 9.64368 24.8049 13.6554 19.4918C17.6672 14.1787 23.2878 10.3025 29.6807 8.4399L29.8993 8.38607C29.5528 10.2864 29.3811 12.2145 29.3861 14.1462V14.1683C29.402 32.0851 43.9255 46.6042 61.8448 46.62V46.6168ZM38.0306 1.48914C37.6537 0.979677 37.1514 0.57634 36.5725 0.318323C35.9936 0.0603064 35.3577 -0.0436155 34.7267 0.0166563H34.7426C15.2458 1.88814 0.107699 18.1266 0 37.9244V37.9339C0.0253411 58.9445 17.0577 75.9715 38.0718 76H38.265C58.0405 76 74.2715 60.8445 75.9756 41.5185L75.9852 41.376C76.0392 40.7746 75.9453 40.1691 75.7118 39.6123C75.4783 39.0554 75.1121 38.564 74.6452 38.1809L74.6389 38.1746C74.1678 37.7856 73.6071 37.5202 73.0075 37.4025C72.408 37.2847 71.7885 37.3182 71.2052 37.5001L71.2305 37.4938L69.5707 37.9877C67.0818 38.8056 64.4774 39.2173 61.8575 39.2069H61.8353C55.1978 39.201 48.8337 36.5625 44.1403 31.8705C39.4468 27.1785 36.8074 20.8165 36.8015 14.181V14.124C36.8015 10.8624 37.4287 7.74641 38.5691 4.89327L38.5089 5.0611C38.7416 4.47062 38.8186 3.8303 38.7326 3.20151C38.6467 2.57272 38.4006 1.97654 38.0179 1.47014L38.0243 1.47964L38.0306 1.48914Z" fill="#573440"/>
</svg>
