<svg width="42" height="42" viewBox="0 0 42 42" fill="none" xmlns="http://www.w3.org/2000/svg">
<rect width="42" height="42" rx="21" fill="black"/>
<path d="M21 3.5C17.5388 3.5 14.1554 4.52636 11.2775 6.44928C8.39967 8.37221 6.15665 11.1053 4.83212 14.303C3.50758 17.5007 3.16102 21.0194 3.83627 24.4141C4.51151 27.8088 6.17822 30.927 8.62564 33.3744C11.0731 35.8218 14.1913 37.4885 17.5859 38.1637C20.9806 38.839 24.4993 38.4924 27.697 37.1679C30.8947 35.8434 33.6278 33.6003 35.5507 30.7225C37.4736 27.8446 38.5 24.4612 38.5 21C38.4954 16.3601 36.6501 11.9116 33.3693 8.63075C30.0884 5.34987 25.6399 3.50463 21 3.5ZM31.3933 16.9978V18.1283C31.3933 18.2148 31.376 18.3004 31.3424 18.3801C31.3087 18.4599 31.2595 18.532 31.1975 18.5924C31.1355 18.6528 31.062 18.7001 30.9814 18.7316C30.9008 18.7631 30.8147 18.7781 30.7283 18.7758C28.8805 18.6452 27.1128 17.9705 25.648 16.8368V25.1108C25.6476 26.0265 25.4648 26.9329 25.1102 27.7773C24.7557 28.6216 24.2365 29.3868 23.583 30.0283C22.9241 30.6865 22.1405 31.2066 21.2781 31.5582C20.4157 31.9098 19.4918 32.0857 18.5605 32.0758C16.6878 32.073 14.8903 31.3382 13.552 30.0283C12.7004 29.1697 12.0871 28.1042 11.7722 26.9367C11.4574 25.7692 11.452 24.5398 11.7565 23.3695C12.0348 22.246 12.5965 21.2135 13.3893 20.3717C13.9805 19.6492 14.7257 19.0678 15.5704 18.6703C16.4152 18.2727 17.3381 18.069 18.2718 18.074H19.7068V21.0543C19.7074 21.1408 19.6896 21.2265 19.6545 21.3056C19.6194 21.3847 19.5678 21.4555 19.5032 21.5131C19.4387 21.5707 19.3625 21.6139 19.2799 21.6398C19.1973 21.6657 19.1102 21.6737 19.0243 21.6632C18.1911 21.413 17.2933 21.496 16.5201 21.8948C15.7469 22.2936 15.1588 22.977 14.8796 23.801C14.6005 24.6249 14.6522 25.5251 15.0238 26.3117C15.3955 27.0983 16.058 27.7099 16.8718 28.0175C17.3443 28.2888 17.8728 28.448 18.4153 28.4848C18.8353 28.5023 19.2553 28.4498 19.6543 28.3238C20.3204 28.099 20.8997 27.6721 21.3116 27.1024C21.7235 26.5327 21.9474 25.8487 21.952 25.1458V10.0695C21.952 9.90272 22.0181 9.74274 22.1359 9.62464C22.2537 9.50654 22.4135 9.43996 22.5803 9.4395H25.0565C25.2174 9.4397 25.3721 9.50145 25.4889 9.61208C25.6058 9.72272 25.6758 9.87386 25.6848 10.0345C25.775 10.8067 26.0203 11.5526 26.4058 12.2277C26.7913 12.9028 27.3091 13.4931 27.9283 13.9633C28.7649 14.5913 29.7586 14.9764 30.8 15.0763C30.956 15.0896 31.1018 15.159 31.2106 15.2716C31.3193 15.3842 31.3836 15.5324 31.3915 15.6888L31.3933 16.9978Z" fill="#993F4B"/>
</svg>
